<svg width="44" height="44" viewBox="0 0 44 44" fill="none" xmlns="http://www.w3.org/2000/svg">
<circle cx="22" cy="22" r="22" fill="#C4C4C4" fill-opacity="0.4"/>
<g clip-path="url(#clip0_390_3)">
<path d="M17.001 39C19.7604 39 22 36.76 22 34V29H17.001C14.2415 29 12.002 31.24 12.002 34C12.002 36.76 14.2415 39 17.001 39Z" fill="#0ACF83"/>
<path d="M12.002 24C12.002 21.24 14.2415 19 17.001 19H22V29H17.001C14.2415 29 12.002 26.76 12.002 24Z" fill="#A259FF"/>
<path d="M12.01 14C12.01 11.24 14.2496 9 17.009 9H22.008V19H17.009C14.2496 19 12.01 16.76 12.01 14Z" fill="#F24E1E"/>
<path d="M22 9H26.999C29.7584 9 31.998 11.24 31.998 14C31.998 16.76 29.7584 19 26.999 19H22V9Z" fill="#FF7262"/>
<path d="M31.998 24C31.998 26.76 29.7584 29 26.999 29C24.2396 29 22 26.76 22 24C22 21.24 24.2396 19 26.999 19C29.7584 19 31.998 21.24 31.998 24Z" fill="#1ABCFE"/>
</g>
<defs>
<clipPath id="clip0_390_3">
<rect width="20" height="30" fill="white" transform="translate(12 9)"/>
</clipPath>
</defs>
</svg>
