<svg width="44" height="44" viewBox="0 0 44 44" fill="none" xmlns="http://www.w3.org/2000/svg">
<circle cx="22" cy="22" r="22" fill="#C4C4C4" fill-opacity="0.4"/>
<path d="M35 35H10V10H35V35Z" fill="#00C3FF"/>
<path d="M35 35H22.5V10H35V35Z" fill="#00C3FF"/>
<path d="M33.5352 33.5352H11.4648V11.4648H33.5352V33.5352Z" fill="#063E8B"/>
<path d="M33.5352 33.5352H22.5V11.4648H33.5352V33.5352Z" fill="#063E8B"/>
<path d="M22.5001 31.9911C21.9131 31.9911 21.3613 31.7625 20.9463 31.3475L13.6526 24.0538C13.2376 23.6388 13.009 23.087 13.009 22.5C13.009 21.9131 13.2376 21.3613 13.6526 20.9463L20.9463 13.6526C21.3613 13.2376 21.9131 13.009 22.5001 13.009C23.087 13.009 23.6388 13.2376 24.0538 13.6526L31.3475 20.9463C31.7625 21.3613 31.9911 21.9131 31.9911 22.5C31.9911 23.087 31.7625 23.6388 31.3475 24.0538L24.0538 31.3475C23.6388 31.7625 23.087 31.9911 22.5001 31.9911ZM22.5001 14.4739C22.3044 14.4739 22.1205 14.5501 21.9821 14.6884L14.6884 21.9821C14.5501 22.1205 14.4739 22.3044 14.4739 22.5C14.4739 22.6957 14.5501 22.8796 14.6884 23.018L21.9821 30.3117C22.1205 30.45 22.3044 30.5262 22.5001 30.5262C22.6957 30.5262 22.8796 30.45 23.018 30.3117L30.3117 23.018C30.45 22.8796 30.5262 22.6957 30.5262 22.5C30.5262 22.3044 30.45 22.1205 30.3117 21.9821L23.018 14.6884C22.8796 14.5501 22.6957 14.4739 22.5001 14.4739Z" fill="#CCEFFF"/>
<path d="M31.3474 20.9463L24.0537 13.6526C23.6387 13.2376 23.0869 13.009 22.5 13.009V14.4739C22.6957 14.4739 22.8795 14.5501 23.0179 14.6884L30.3116 21.9821C30.45 22.1205 30.5262 22.3044 30.5262 22.5C30.5262 22.6957 30.45 22.8796 30.3116 23.018L23.0179 30.3117C22.8796 30.45 22.6957 30.5262 22.5 30.5262V31.9911C23.0869 31.9911 23.6387 31.7625 24.0537 31.3475L31.3474 24.0538C31.7625 23.6388 31.991 23.087 31.991 22.5C31.991 21.9131 31.7625 21.3613 31.3474 20.9463Z" fill="#CCEFFF"/>
<path d="M25.0889 25.2148C24.1439 25.2148 23.4717 24.7852 23.2373 24.582L23.6279 23.9258C23.8779 24.1029 24.4532 24.4648 25.0654 24.4648C25.4623 24.4648 25.7373 24.2985 25.7373 24.0117C25.7373 23.6597 25.1565 23.5457 24.8389 23.457C24.5732 23.3841 23.3779 23.2162 23.3779 22.3164C23.3779 21.4502 24.1317 20.9648 24.9873 20.9648C25.8854 20.9648 26.3649 21.3295 26.5889 21.5273L26.167 22.1602C25.9586 22.0039 25.4948 21.707 24.9795 21.707C24.5997 21.707 24.3545 21.8693 24.3545 22.168C24.3545 22.5407 25.0081 22.6472 25.1592 22.6836C25.4404 22.7566 26.7451 22.9557 26.7451 23.918C26.7451 25.0553 25.5993 25.2148 25.0889 25.2148Z" fill="#00C3FF"/>
<path d="M18.7764 25.1367V19.5898H21.1279C22.2042 19.5898 22.8936 20.5794 22.8936 21.4336C22.8936 22.4403 22.1283 23.2773 21.167 23.2773H19.8545V25.1367H18.7764ZM19.8545 22.332H21.1045C21.4827 22.332 21.7998 21.9792 21.7998 21.4336C21.7998 20.9648 21.5152 20.5352 21.0576 20.5352H19.8545V22.332Z" fill="#00C3FF"/>
<path d="M22.5 20.2983V22.6039C22.7464 22.284 22.8937 21.8751 22.8937 21.4336C22.8937 21.0482 22.7529 20.6355 22.5 20.2983Z" fill="#00C3FF"/>
</svg>
