<?xml version="1.0" encoding="UTF-8"?>
<svg xmlns="http://www.w3.org/2000/svg" xmlns:xlink="http://www.w3.org/1999/xlink" width="45px" height="45px" viewBox="0 0 45 45" version="1.1">
<g id="surface1">
<path fill="black" d="M 33.925781 4.660156 C 33.925781 5.144531 33.53125 5.539062 33.046875 5.539062 C 32.5625 5.539062 32.167969 5.144531 32.167969 4.660156 C 32.167969 4.171875 32.5625 3.78125 33.046875 3.78125 C 33.53125 3.78125 33.925781 4.171875 33.925781 4.660156 Z M 33.925781 4.660156 "/>
<path fill="black" d="M 22.5 9.316406 C 14.261719 9.316406 7.558594 16.019531 7.558594 24.257812 C 7.558594 32.578125 14.316406 39.199219 22.5 39.199219 C 30.703125 39.199219 37.441406 32.566406 37.441406 24.257812 C 37.441406 16.019531 30.738281 9.316406 22.5 9.316406 Z M 19.792969 37.160156 C 19.839844 36.96875 19.863281 36.765625 19.863281 36.5625 L 19.863281 33.0625 C 19.859375 31.78125 20.308594 31.582031 20.820312 30.800781 C 20.984375 30.550781 21.007812 30.234375 20.886719 29.960938 C 20.761719 29.6875 20.511719 29.492188 20.214844 29.449219 C 16.726562 28.929688 15.359375 27.132812 14.824219 25.714844 C 14.113281 23.828125 14.488281 21.476562 15.742188 19.996094 C 15.929688 19.769531 16.101562 19.371094 15.964844 18.96875 C 15.699219 18.160156 15.738281 16.875 15.90625 16.375 C 16.664062 16.488281 17.371094 16.917969 18.175781 17.40625 C 18.644531 17.691406 18.972656 17.953125 19.539062 17.800781 C 20.523438 17.53125 21.523438 17.390625 22.5 17.375 C 23.480469 17.390625 24.476562 17.53125 25.460938 17.800781 C 26.023438 17.953125 26.367188 17.683594 26.824219 17.40625 C 27.628906 16.917969 28.335938 16.488281 29.09375 16.375 C 29.261719 16.875 29.304688 18.160156 29.039062 18.960938 C 28.898438 19.371094 29.070312 19.769531 29.257812 19.996094 C 30.511719 21.476562 30.886719 23.828125 30.175781 25.714844 C 29.640625 27.132812 28.273438 28.929688 24.785156 29.449219 C 24.492188 29.492188 24.238281 29.6875 24.113281 29.960938 C 23.992188 30.234375 24.015625 30.550781 24.179688 30.800781 C 24.691406 31.578125 25.140625 31.777344 25.136719 33.0625 L 25.136719 36.566406 C 25.136719 36.769531 25.160156 36.96875 25.207031 37.160156 C 24.320312 37.347656 23.414062 37.441406 22.5 37.441406 C 21.585938 37.441406 20.679688 37.347656 19.792969 37.160156 Z M 26.902344 36.6875 C 26.898438 36.644531 26.894531 36.605469 26.894531 36.5625 L 26.894531 33.0625 C 26.894531 32.054688 26.675781 31.398438 26.398438 30.90625 C 29.066406 30.1875 30.96875 28.59375 31.820312 26.335938 C 32.71875 23.949219 32.3125 21.097656 30.8125 19.125 C 31.085938 17.921875 31.078125 16.027344 30.425781 15.164062 C 30.132812 14.777344 29.722656 14.578125 29.273438 14.597656 C 27.898438 14.660156 26.839844 15.34375 25.683594 16.042969 C 24.628906 15.773438 23.5625 15.632812 22.511719 15.617188 C 22.503906 15.617188 22.496094 15.617188 22.488281 15.617188 C 21.4375 15.632812 20.371094 15.773438 19.316406 16.042969 C 18.171875 15.351562 17.109375 14.660156 15.726562 14.597656 C 15.277344 14.574219 14.867188 14.777344 14.574219 15.164062 C 13.921875 16.023438 13.914062 17.917969 14.1875 19.125 C 12.6875 21.097656 12.28125 23.949219 13.179688 26.335938 C 14.03125 28.59375 15.933594 30.1875 18.601562 30.90625 C 18.382812 31.296875 18.199219 31.789062 18.132812 32.472656 C 17.046875 32.851562 16.167969 32.601562 15.570312 31.59375 C 14.871094 30.421875 13.6875 29.472656 12.328125 29.589844 C 11.84375 29.632812 11.488281 30.058594 11.53125 30.539062 C 11.570312 31.023438 12 31.382812 12.480469 31.339844 C 13.109375 31.285156 13.730469 31.941406 14.058594 32.492188 C 14.996094 34.078125 16.519531 34.640625 18.105469 34.300781 L 18.105469 36.558594 C 18.105469 36.601562 18.101562 36.644531 18.09375 36.6875 C 12.890625 34.839844 9.316406 29.828125 9.316406 24.257812 C 9.316406 16.988281 15.230469 11.074219 22.5 11.074219 C 29.769531 11.074219 35.683594 16.988281 35.683594 24.257812 C 35.683594 29.828125 32.109375 34.839844 26.902344 36.6875 Z M 26.902344 36.6875 "/>
<path fill="black" d="M 40.605469 0 L 4.394531 0 C 1.972656 0 0 1.972656 0 4.394531 L 0 40.605469 C 0 43.027344 1.972656 45 4.394531 45 L 40.605469 45 C 43.027344 45 45 43.027344 45 40.605469 L 45 4.394531 C 45 1.972656 43.027344 0 40.605469 0 Z M 43.242188 40.605469 C 43.242188 42.058594 42.058594 43.242188 40.605469 43.242188 L 4.394531 43.242188 C 2.941406 43.242188 1.757812 42.058594 1.757812 40.605469 L 1.757812 4.394531 C 1.757812 2.941406 2.941406 1.757812 4.394531 1.757812 L 40.605469 1.757812 C 42.058594 1.757812 43.242188 2.941406 43.242188 4.394531 Z M 43.242188 40.605469 "/>
<path fill="black" d="M 11.953125 5.539062 L 29.53125 5.539062 C 30.015625 5.539062 30.410156 5.144531 30.410156 4.660156 C 30.410156 4.171875 30.015625 3.78125 29.53125 3.78125 L 11.953125 3.78125 C 11.46875 3.78125 11.074219 4.171875 11.074219 4.660156 C 11.074219 5.144531 11.46875 5.539062 11.953125 5.539062 Z M 11.953125 5.539062 "/>
</g>
</svg>
