<svg width="312" height="131" viewBox="0 0 312 131" fill="none" xmlns="http://www.w3.org/2000/svg">
<path d="M30.2475 47.9024C30.2475 47.5452 29.329 47.239 27.4919 46.9839C27.2368 46.9839 26.3182 47.137 24.7363 47.4431C18.0004 48.4127 14.6325 50.709 14.6325 54.3321C13.4077 55.914 10.8052 64.0277 6.82493 78.6732C6.82493 78.9794 6.97802 79.4387 7.28419 80.051L6.82493 80.9696C6.82493 82.3474 7.89655 84.0313 10.0398 86.0215C7.74346 88.3178 6.51875 90.0018 6.36566 91.0734C7.28419 94.3903 7.74346 96.3805 7.74346 97.0439V97.9624C8.66199 97.9624 9.12126 98.4217 9.12126 99.3402L10.0398 98.8809H11.8769V99.7995H12.3361C13.3057 98.5748 14.5304 97.9624 16.0103 97.9624C20.2967 96.2784 22.44 94.9006 22.44 93.829C26.7775 91.5327 29.0738 89.8487 29.329 88.7771C31.4722 87.8586 32.5438 87.0931 32.5438 86.4808L42.1884 76.3769C44.944 72.2435 46.3218 68.5694 46.3218 65.3545C46.3218 65.0483 46.1687 64.5891 45.8625 63.9767C46.1687 63.9767 46.4749 62.2927 46.7811 58.9248C45.8625 57.7001 45.4033 56.4754 45.4033 55.2507C40.7596 50.607 36.4731 48.0045 32.5438 47.4431H31.166L30.2475 47.9024ZM21.5214 74.5398C22.44 71.7842 23.2054 68.8756 23.8178 65.8138C25.3487 57.8532 27.4919 53.8729 30.2475 53.8729C33.1562 53.8729 34.6871 55.863 34.8402 59.8433C34.8402 62.2927 34.534 63.5174 33.9216 63.5174C32.3907 68.1101 28.5635 72.7028 22.44 77.2954H21.5214V74.5398ZM74.0309 45.402V44.9427L67.1419 47.239L66.2233 46.7797C66.2233 47.5452 65.1517 48.1575 63.0085 48.6168C60.6101 47.0859 58.6199 46.3205 57.038 46.3205C55.8133 46.4736 55.201 46.9328 55.201 47.6983C53.7211 48.3617 52.9557 49.1271 52.9046 49.9946C53.2108 49.9946 53.3639 50.1477 53.3639 50.4539C52.4964 51.6786 51.731 54.2811 51.0676 58.2614L51.5268 59.1799H50.6083C49.7408 64.0788 48.8223 66.5282 47.8527 66.5282C47.8527 67.0385 48.1589 67.8039 48.7712 68.8245C48.2099 68.8245 47.9037 69.59 47.8527 71.1209V72.0394L48.312 72.9579H47.3934C47.3934 77.3975 46.7811 80.7654 45.5564 83.0618H46.0156C45.6584 85.8174 45.3523 87.5013 45.0971 88.1137C45.5564 90.1039 46.9342 92.094 49.2305 94.0842C49.5367 94.0842 49.6898 93.9311 49.6898 93.6249H50.149C51.6799 95.0537 54.1293 95.9723 57.4973 96.3805V95.9212C59.8957 95.0027 61.4266 94.0842 62.09 93.1656C68.8259 89.3894 72.1938 85.8684 72.1938 82.6025V82.1432C71.5815 81.3778 71.2753 80.7654 71.2753 80.3062H70.3567C70.3567 81.9902 67.9073 83.368 63.0085 84.4396C63.0085 84.1334 62.8554 83.9803 62.5492 83.9803C62.5492 85.5112 61.1714 86.2766 58.4158 86.2766C58.4158 85.9705 58.2627 85.8174 57.9566 85.8174C58.2117 85.205 58.5179 83.521 58.8751 80.7654C58.5689 80.7654 58.4158 80.6124 58.4158 80.3062H58.8751C59.7936 73.5703 61.1714 70.2023 63.0085 70.2023L63.927 70.6616C64.2332 70.0492 64.3863 69.59 64.3863 69.2838L74.0309 65.1504C74.0309 65.4566 74.184 65.6097 74.4901 65.6097H74.9494V65.1504C76.7865 63.6195 78.0112 62.8541 78.6235 62.8541V62.3948C78.6235 61.6804 78.4704 61.068 78.1643 60.5577C78.1643 60.2516 75.7148 59.7923 70.816 59.1799L65.7641 60.5577C65.7641 60.2516 65.611 60.0985 65.3048 60.0985C64.7435 60.0985 64.4373 60.4046 64.3863 61.017L63.4678 60.5577L63.927 56.4243C70.3567 54.5873 75.4087 52.7502 79.0828 50.9131L81.3791 51.3724C81.3791 50.607 81.9915 50.1477 83.2162 49.9946C84.2878 49.9946 85.0533 48.923 85.5125 46.7797C85.3594 45.9122 84.1347 45.2999 81.8384 44.9427C81.175 44.9427 80.5627 45.0958 80.0013 45.402C79.44 45.0958 78.0622 44.7896 75.8679 44.4834L74.0309 45.402ZM117.457 30.4503C117.457 29.6848 116.232 29.2256 113.783 29.0725C113.222 29.0725 112.456 29.3787 111.487 29.991L110.568 29.5318C109.905 30.4503 109.445 30.9096 109.19 30.9096C106.792 35.8084 105.414 38.2578 105.057 38.2578C105.057 38.564 105.21 39.0233 105.516 39.6356C103.985 45.7081 102.761 49.8415 101.842 52.0358L102.301 52.9543H101.842L95.4123 68.1101L95.8715 69.0286C94.953 69.692 94.4937 70.4575 94.4937 71.325H94.0345L92.6567 70.4064L94.0345 63.9767C93.7283 63.4154 93.5752 62.803 93.5752 62.1397V57.547L93.1159 56.6285H93.5752C93.5752 56.3223 93.4221 55.863 93.1159 55.2507C93.1159 54.5873 93.269 53.9749 93.5752 53.4136C93.5752 53.1074 93.4221 52.6482 93.1159 52.0358C93.1159 47.0859 91.585 44.0242 88.5233 42.8505L86.2269 43.3097L83.9306 42.8505C83.9306 43.3097 82.859 44.3814 80.7157 46.0653V46.5246C81.9915 46.5246 82.7569 47.9024 83.0121 50.658C82.7059 50.658 82.5528 50.8111 82.5528 51.1173V52.0358L83.0121 52.9543C82.7059 52.9543 82.3997 53.4136 82.0935 54.3321L82.5528 55.2507L82.0935 59.3841C82.0935 59.6902 82.2466 60.1495 82.5528 60.7619C82.2466 60.7619 82.0935 60.9149 82.0935 61.2211V65.8138L82.5528 68.1101L81.6343 68.5694L82.0935 69.4879V71.325L81.6343 76.8362C81.9405 76.8362 82.0935 76.9893 82.0935 77.2954C81.7874 77.2954 81.6343 77.4485 81.6343 77.7547V80.9696L82.0935 83.2659C81.7874 83.2659 81.6343 83.7252 81.6343 84.6437L82.0935 85.5622C81.7874 85.5622 81.6343 85.7153 81.6343 86.0215L82.0935 86.94H81.6343C82.1956 88.4709 83.1141 89.2364 84.3899 89.2364C85.6146 91.1244 87.6047 93.1146 90.3603 95.2068C91.0237 95.2068 93.167 93.2167 96.7901 89.2364C99.8518 80.6634 101.995 75.9176 103.22 74.9991L102.761 74.0806C103.985 72.2435 104.751 71.325 105.057 71.325C105.057 71.0188 104.904 70.8657 104.598 70.8657C104.598 70.1003 105.057 68.7225 105.975 66.7323L105.516 65.8138C105.516 65.5076 105.822 65.3545 106.435 65.3545L109.65 58.4655H109.19L111.027 55.2507L110.568 54.3321C111.027 53.7198 111.487 53.4136 111.946 53.4136C112.711 47.29 113.324 44.2283 113.783 44.2283C114.089 41.4727 114.855 38.4109 116.079 35.0429L116.998 35.5022H117.457L116.998 34.5837V33.6652C117.304 33.6652 117.763 33.5121 118.376 33.2059C117.916 32.2874 117.457 31.8281 116.998 31.8281L117.457 30.9096V30.4503ZM127.612 33.9713C126.54 33.9713 125.469 33.6141 124.295 32.8487C123.479 33.2059 122.917 33.41 122.662 33.41C121.897 33.41 120.417 37.0841 118.222 44.4324L118.784 45.555C116.181 50.8621 114.344 53.9749 113.273 54.8935L114.395 58.7717V59.8943C113.017 61.5783 112.252 63.2113 112.15 64.8442L112.711 65.9158C111.333 68.3653 109.701 72.6007 107.761 78.6222H108.323L107.2 81.3778C107.557 81.3778 107.761 81.5819 107.761 81.9391L108.884 81.3778V82.4494H107.2L107.761 83.5721V84.1334H106.639V86.889H107.761V87.9606L106.639 87.4503C106.639 88.2668 106.486 88.9812 106.128 89.6446C106.486 90.308 106.639 91.0224 106.639 91.8389L106.128 92.9615H107.2C106.537 94.4414 105.822 95.1558 105.006 95.1558V96.2274H106.128V96.7887C105.006 96.7887 104.444 98.0645 104.444 100.667H105.567V101.228C105.567 101.943 105.21 102.3 104.444 102.3C104.444 105.26 105.72 107.454 108.323 108.934C113.068 110.822 115.467 112.302 115.467 113.322H117.661C117.661 112.965 117.508 112.761 117.151 112.761C117.865 110.924 118.222 109.648 118.222 108.934C117.865 108.934 117.661 108.73 117.661 108.372C118.12 108.372 118.529 106.893 118.784 103.984L118.222 102.861C118.58 102.861 119.141 100.667 119.906 96.2274H118.784V95.7171H119.345C121.897 88.8281 123.172 84.0313 123.172 81.3778C128.071 78.9794 130.827 76.9382 131.439 75.3053H132V76.9382C133.123 76.581 133.684 76.2238 133.684 75.8666C136.593 75.5094 138.073 74.9481 138.073 74.1826L137.512 73.111C137.818 73.111 138.379 73.3151 139.196 73.6723C140.267 73.6723 140.829 73.3151 140.829 72.5497H143.023C143.023 72.1925 142.819 71.9884 142.462 71.9884C144.299 69.692 146.493 67.855 149.095 66.4772C150.014 64.9973 150.728 64.2829 151.29 64.2829L150.728 63.1602C152.208 63.1602 152.974 62.5989 152.974 61.5273C152.616 61.5273 152.412 61.3232 152.412 60.966V60.4046C153.79 60.4046 154.709 58.9248 155.168 56.0161V55.4548C155.168 52.6482 154.607 51.2193 153.484 51.0662V52.1379H152.974V51.0662C152.974 49.7905 151.29 48.4637 147.973 47.188L146.901 47.7493H146.34V47.188H147.462C147.462 46.5246 146.544 46.0143 144.707 45.555L143.584 46.1164L141.39 45.555C141.084 45.555 140.522 45.7592 139.706 46.1164L138.634 45.555C135.062 46.6267 133.021 47.188 132.562 47.188C131.898 47.188 131.541 46.8308 131.439 46.1164V45.555C131.439 44.8917 131.796 44.5344 132.562 44.4324C132.205 44.1772 132 42.4933 132 39.4825C130.419 38.0027 129.5 36.5228 129.245 35.094C128.428 35.094 127.714 35.2471 127.051 35.6043H126.489V35.094H127.612V33.9713ZM128.684 63.1602C128.684 62.803 128.53 62.6499 128.173 62.6499C128.173 61.6294 128.326 60.1495 128.684 58.2104C128.684 57.0367 132.205 55.5568 139.196 53.8218L140.267 54.3832C138.992 56.2202 137.92 57.1388 136.95 57.1388V57.649L137.512 58.7717C137.154 58.7717 136.95 58.5676 136.95 58.2104C135.113 58.6696 134.195 59.5882 134.195 60.966C133.838 60.966 133.684 60.7619 133.684 60.4046L128.684 63.1602ZM144.145 67.0385V67.5998H143.023V67.0385H144.145ZM119.345 93.4718V94.5945H118.784V93.4718H119.345ZM107.761 96.2274V96.7887H106.639V96.2274H107.761ZM162.924 39.8908C162.312 44.1772 161.393 47.8514 160.169 50.9131V52.7502H159.25C157.872 57.8532 155.729 61.5273 152.821 63.7726L153.28 64.6911V65.1504C150.779 68.1101 148.942 72.0904 147.769 77.0913C145.625 79.5918 144.554 81.5819 144.554 83.0618C145.166 84.0313 145.472 84.9499 145.472 85.8174C147.054 85.8174 149.044 87.6544 151.443 91.3286C153.331 91.3286 154.862 88.8791 156.035 83.9803C157.872 83.9803 161.393 82.6025 166.599 79.8469C167.211 80.8165 167.517 82.3474 167.517 84.4396C167.517 89.6446 168.742 92.2471 171.191 92.2471C174.1 95.0027 176.243 96.3805 177.621 96.3805C179.152 95.1558 179.917 93.778 179.917 92.2471L179.458 89.9508C179.764 89.3894 179.917 88.624 179.917 87.6544L179.458 86.7359H179.917C178.999 82.6535 178.539 79.2856 178.539 76.632C180.683 74.4888 181.754 72.8048 181.754 71.5801V70.2023H179.917C178.948 70.2023 177.57 64.9973 175.784 54.5873V50.4539C174.865 49.4333 174.253 47.4431 173.947 44.4834C174.253 44.4834 174.406 44.3303 174.406 44.0242C174.1 44.0242 173.947 43.8711 173.947 43.5649V42.6464L174.406 41.7278H173.947C173.947 41.4216 174.1 40.9624 174.406 40.35V39.8908C172.569 38.8191 171.65 38.0537 171.65 37.5944H166.599L162.924 39.8908ZM162.924 65.1504C164.149 63.2113 164.761 61.6804 164.761 60.5577C165.323 60.5577 165.782 61.9355 166.139 64.6911H165.68C166.292 66.9875 166.599 68.3653 166.599 68.8245L166.139 70.6616C166.445 70.6616 166.599 70.8147 166.599 71.1209C166.292 71.1209 166.139 71.2739 166.139 71.5801C166.139 72.3456 164.455 73.111 161.087 73.8765V72.4987C162.006 68.7225 162.771 66.273 163.384 65.1504H162.924ZM218.291 30.4503C218.291 29.6848 217.067 29.2256 214.617 29.0725C214.056 29.0725 213.291 29.3787 212.321 29.991L211.402 29.5318C210.739 30.4503 210.28 30.9096 210.025 30.9096C207.626 35.8084 206.248 38.2578 205.891 38.2578C205.891 38.564 206.044 39.0233 206.351 39.6356C204.82 45.7081 203.595 49.8415 202.676 52.0358L203.136 52.9543H202.676L196.247 68.1101L196.706 69.0286C195.787 69.692 195.328 70.4575 195.328 71.325H194.869L193.491 70.4064L194.869 63.9767C194.563 63.4154 194.41 62.803 194.41 62.1397V57.547L193.95 56.6285H194.41C194.41 56.3223 194.257 55.863 193.95 55.2507C193.95 54.5873 194.103 53.9749 194.41 53.4136C194.41 53.1074 194.257 52.6482 193.95 52.0358C193.95 47.0859 192.419 44.0242 189.358 42.8505L187.061 43.3097L184.765 42.8505C184.765 43.3097 183.693 44.3814 181.55 46.0653V46.5246C182.826 46.5246 183.591 47.9024 183.847 50.658C183.54 50.658 183.387 50.8111 183.387 51.1173V52.0358L183.847 52.9543C183.54 52.9543 183.234 53.4136 182.928 54.3321L183.387 55.2507L182.928 59.3841C182.928 59.6902 183.081 60.1495 183.387 60.7619C183.081 60.7619 182.928 60.9149 182.928 61.2211V65.8138L183.387 68.1101L182.469 68.5694L182.928 69.4879V71.325L182.469 76.8362C182.775 76.8362 182.928 76.9893 182.928 77.2954C182.622 77.2954 182.469 77.4485 182.469 77.7547V80.9696L182.928 83.2659C182.622 83.2659 182.469 83.7252 182.469 84.6437L182.928 85.5622C182.622 85.5622 182.469 85.7153 182.469 86.0215L182.928 86.94H182.469C183.03 88.4709 183.949 89.2364 185.224 89.2364C186.449 91.1244 188.439 93.1146 191.195 95.2068C191.858 95.2068 194.001 93.2167 197.624 89.2364C200.686 80.6634 202.83 75.9176 204.054 74.9991L203.595 74.0806C204.82 72.2435 205.585 71.325 205.891 71.325C205.891 71.0188 205.738 70.8657 205.432 70.8657C205.432 70.1003 205.891 68.7225 206.81 66.7323L206.351 65.8138C206.351 65.5076 206.657 65.3545 207.269 65.3545L210.484 58.4655H210.025L211.862 55.2507L211.402 54.3321C211.862 53.7198 212.321 53.4136 212.78 53.4136C213.546 47.29 214.158 44.2283 214.617 44.2283C214.924 41.4727 215.689 38.4109 216.914 35.0429L217.832 35.5022H218.291L217.832 34.5837V33.6652C218.138 33.6652 218.598 33.5121 219.21 33.2059C218.751 32.2874 218.291 31.8281 217.832 31.8281L218.291 30.9096V30.4503Z" fill="black"/>
<path d="M228.057 80.41L229.373 81.7259C230.163 82.1645 231.479 82.5154 232.268 82.954C233.146 82.954 233.584 82.5154 233.935 82.5154C233.935 82.954 234.374 82.954 234.812 83.3927C235.251 83.3927 235.251 83.3927 235.69 82.954V82.5154C235.251 81.7259 234.812 81.2872 233.935 80.8486V80.0591C233.935 79.6204 235.69 80.1468 236.128 80.1468C236.128 79.0941 233.935 77.515 232.268 76.6378C231.04 76.1991 231.128 75.4096 229.812 74.971C226.478 73.3042 223.934 71.6374 220.952 69.0933C220.601 68.6547 220.162 68.216 220.162 67.7774C220.601 67.4265 218.846 67.8651 224.285 62.3384C224.724 61.9875 225.162 61.5489 225.513 61.5489C225.952 61.5489 226.391 61.1102 226.829 61.1102C227.619 60.6716 228.057 59.8821 229.373 59.4434C231.04 58.5662 233.146 56.8994 234.812 55.6712C236.04 54.7939 236.918 53.5658 237.795 52.6885V52.2499C238.585 51.4603 238.146 48.4777 236.479 48.4777H234.812C232.268 49.7058 230.163 51.3726 228.057 53.0394C225.513 55.1448 222.618 57.2503 220.513 59.3557C219.636 60.6716 218.408 61.4611 217.53 62.777C216.741 63.5666 215.863 64.4438 214.635 65.3211C214.635 65.3211 214.197 65.672 214.197 66.1106C214.197 67.7774 214.197 69.5319 214.986 70.7601C215.863 72.4269 217.092 73.7428 218.408 74.971C220.074 76.6378 222.18 78.3046 224.285 79.6204C225.162 80.0591 225.513 80.0591 225.952 80.0591C226.829 80.0591 227.268 80.0591 227.619 80.41H228.057ZM264.003 68.0406C265.406 65.3211 267.512 62.6893 269.442 60.0575C270.845 57.338 272.863 54.7062 274.266 52.0744C275.582 49.969 276.811 47.3372 278.126 45.3195C278.74 43.4773 280.144 40.5823 280.758 38.6523C280.144 37.3364 279.355 36.1083 278.126 35.1433C276.811 34.5292 275.582 34.5292 274.793 36.1083C274.266 36.7223 274.266 37.3364 273.389 37.9505C272.863 38.6523 271.986 39.3541 271.986 39.8805C270.845 41.9859 270.231 44.0914 268.827 45.3195C268.827 46.1091 268.213 46.7231 267.512 47.3372C266.108 49.969 264.003 52.6885 262.774 56.1098C261.985 57.338 261.985 58.8293 261.985 60.0575C261.458 60.0575 261.458 60.6716 260.757 61.4611C258.827 64.707 256.634 67.5142 254.616 70.146C254.002 71.4619 253.388 72.076 253.388 73.4796C253.388 73.4796 253.388 74.2692 252.774 74.8832C249.966 78.8309 246.545 83.6559 243.211 88.1299C242.597 89.6212 241.194 91.0248 240.58 92.253C240.58 92.7794 239.966 93.6566 239.264 93.6566C238.65 93.6566 238.65 94.183 238.036 94.183C237.421 94.183 236.72 94.7971 236.72 95.4989C237.421 96.9902 237.421 96.9902 238.036 97.6043C238.036 98.3061 239.264 98.3061 239.966 99.0079C239.966 99.0079 240.58 99.0079 240.58 98.3061L241.808 96.9902C242.597 96.2007 242.597 95.4989 243.211 94.7971C246.019 91.5512 249.265 88.1299 252.072 84.2699C254.616 80.8486 257.423 77.4273 259.353 74.2692L264.003 68.0406ZM281.662 80.9363C281.224 81.2872 281.224 82.1645 281.662 82.1645C282.013 83.8313 283.329 84.2699 284.996 84.2699C285.434 83.8313 285.873 83.8313 286.224 83.8313C287.101 83.3927 287.978 83.0418 288.329 82.6031C289.207 81.7259 290.084 80.9363 290.873 80.4977C293.417 78.3923 295.523 76.2869 297.19 73.7428C297.628 73.3042 298.067 72.8655 298.506 72.8655L300.962 71.6374C302.278 70.7601 303.506 69.9706 304.383 68.6547C304.822 67.8651 305.173 66.9879 304.822 66.1983C304.383 64.8825 304.383 63.6543 303.945 62.777C303.506 61.5489 302.716 60.233 301.839 59.4434C300.611 58.5662 299.295 57.7766 297.628 56.8994C295.962 56.0221 293.856 55.2326 292.189 53.9167C290.084 53.1271 287.978 51.8113 286.224 50.5831C285.873 50.5831 285.434 50.1445 285.434 50.1445H284.557V50.5831C284.557 51.0217 284.557 51.0217 284.996 51.4603C285.434 52.6885 286.224 53.5658 287.101 54.7939C287.54 55.2326 287.978 56.0221 288.768 56.4607C290.873 58.5662 292.979 60.233 295.523 61.9875C295.962 61.9875 296.4 61.9875 296.4 62.777V63.2157C295.962 63.2157 295.962 63.6543 295.523 64.0929C294.646 64.4438 293.856 65.3211 292.979 66.1983C291.312 67.8651 289.645 69.0933 287.978 70.7601C286.663 72.076 285.873 73.7428 284.996 75.4096C284.557 75.8482 284.119 76.2869 284.119 76.7255C283.768 77.0764 283.329 77.515 283.329 77.9537L282.89 78.3923C282.452 78.8309 282.013 78.8309 281.662 79.1818V80.9363Z" fill="black"/>
</svg>
